<svg xmlns="http://www.w3.org/2000/svg" xmlns:xlink="http://www.w3.org/1999/xlink" width="500" zoomAndPan="magnify" viewBox="0 0 375 374.999991" height="500" preserveAspectRatio="xMidYMid meet" version="1.0"><defs><g/></defs><rect x="-37.5" width="450" fill="#ffffff" y="-37.499999" height="449.999989" fill-opacity="1"/><rect x="-37.5" width="450" fill="#000000" y="-37.499999" height="449.999989" fill-opacity="1"/><g fill="#ffffff" fill-opacity="1"><g transform="translate(102.991191, 269.3228)"><g><path d="M 49.359375 2.796875 C 38.335938 2.796875 28.207031 0.738281 18.96875 -3.375 C 9.738281 -7.488281 2.175781 -13.347656 -3.71875 -20.953125 L 17.234375 -46.09375 C 26.078125 -34.144531 36.164062 -28.171875 47.5 -28.171875 C 62.863281 -28.171875 70.546875 -37.171875 70.546875 -55.171875 L 70.546875 -132.703125 L 13.265625 -132.703125 L 13.265625 -162.96875 L 108.03125 -162.96875 L 108.03125 -57.265625 C 108.03125 -37.242188 103.0625 -22.226562 93.125 -12.21875 C 83.1875 -2.207031 68.597656 2.796875 49.359375 2.796875 Z M 49.359375 2.796875 "/></g></g></g><g fill="#ffffff" fill-opacity="1"><g transform="translate(195.881879, 269.3228)"><g><path d="M 19.328125 -162.96875 L 57.03125 -162.96875 L 57.03125 0 L 19.328125 0 Z M 19.328125 -162.96875 "/></g></g></g></svg>