<svg xmlns="http://www.w3.org/2000/svg" xmlns:xlink="http://www.w3.org/1999/xlink" width="500" zoomAndPan="magnify" viewBox="0 0 375 374.999991" height="500" preserveAspectRatio="xMidYMid meet" version="1.0"><defs><clipPath id="78e72d323d"><path d="M 15.515625 15.515625 L 359.484375 15.515625 L 359.484375 359.484375 L 15.515625 359.484375 Z M 15.515625 15.515625 " clip-rule="nonzero"/></clipPath><clipPath id="32f5b48233"><path d="M 187.5 15.515625 C 92.515625 15.515625 15.515625 92.515625 15.515625 187.5 C 15.515625 282.484375 92.515625 359.484375 187.5 359.484375 C 282.484375 359.484375 359.484375 282.484375 359.484375 187.5 C 359.484375 92.515625 282.484375 15.515625 187.5 15.515625 Z M 187.5 15.515625 " clip-rule="nonzero"/></clipPath><clipPath id="9a02b41ce8"><path d="M 110.386719 76 L 264 76 L 264 246 L 110.386719 246 Z M 110.386719 76 " clip-rule="nonzero"/></clipPath><clipPath id="853083d291"><path d="M 148 159 L 224 159 L 224 300 L 148 300 Z M 148 159 " clip-rule="nonzero"/></clipPath></defs><g clip-path="url(#78e72d323d)"><g clip-path="url(#32f5b48233)"><path fill="#38b6ff" d="M 15.515625 15.515625 L 359.484375 15.515625 L 359.484375 359.484375 L 15.515625 359.484375 Z M 15.515625 15.515625 " fill-opacity="1" fill-rule="nonzero"/></g></g><g clip-path="url(#9a02b41ce8)"><path fill="#fbe2ab" d="M 263.625 155.535156 C 262.605469 180.726562 252.875 198.882812 236.890625 210.582031 C 224.050781 220.609375 215.90625 231.78125 216.628906 245.03125 L 156.382812 245.03125 C 157.019531 234.421875 150.363281 222.261719 138.308594 209.277344 C 121.722656 194.433594 110.40625 172.019531 110.714844 149.25 C 111.347656 102.992188 146.226562 80.488281 191.046875 76.894531 C 235.511719 75.019531 264.867188 124.949219 263.625 155.535156 Z M 263.625 155.535156 " fill-opacity="1" fill-rule="nonzero"/></g><g clip-path="url(#853083d291)"><path fill="#59524b" d="M 162.28125 164.09375 C 162.308594 164.089844 162.332031 164.082031 162.355469 164.074219 C 162.386719 164.074219 162.417969 164.074219 162.453125 164.074219 C 162.390625 164.097656 162.316406 164.109375 162.28125 164.09375 Z M 200.519531 164.035156 C 200.492188 164.0625 200.441406 164.089844 200.378906 164.117188 C 200.433594 164.101562 200.492188 164.074219 200.523438 164.035156 C 200.519531 164.035156 200.519531 164.035156 200.519531 164.035156 Z M 162.222656 164.109375 C 162.222656 164.113281 162.222656 164.113281 162.222656 164.113281 C 162.21875 164.117188 162.21875 164.117188 162.214844 164.121094 C 162.21875 164.117188 162.222656 164.113281 162.226562 164.109375 C 162.226562 164.109375 162.226562 164.109375 162.222656 164.109375 Z M 203.390625 163.769531 C 203.386719 163.769531 203.382812 163.769531 203.378906 163.769531 C 203.328125 163.785156 203.246094 163.78125 203.152344 163.765625 C 203.195312 163.789062 203.308594 163.8125 203.390625 163.769531 Z M 220.300781 271.851562 C 221.207031 272.566406 221.957031 273.464844 222.492188 274.472656 C 223.207031 275.824219 223.535156 277.367188 223.421875 278.867188 C 223.390625 279.617188 223.207031 280.355469 222.976562 281.0625 C 222.726562 281.765625 222.375 282.429688 221.953125 283.039062 C 221.082031 284.238281 219.914062 285.214844 218.566406 285.804688 C 218.402344 285.886719 218.230469 285.949219 218.054688 286.007812 C 217.882812 286.066406 217.714844 286.136719 217.535156 286.1875 C 217.179688 286.273438 216.828125 286.378906 216.460938 286.417969 C 215.734375 286.542969 215 286.503906 214.300781 286.511719 C 212.886719 286.527344 211.46875 286.523438 210.050781 286.558594 C 209.683594 286.566406 209.3125 286.578125 208.945312 286.585938 C 208.886719 286.742188 208.824219 286.894531 208.769531 287.050781 C 208.457031 287.875 208.207031 288.703125 207.886719 289.554688 C 207.757812 289.988281 207.53125 290.382812 207.363281 290.796875 C 207.175781 291.207031 206.945312 291.59375 206.738281 292 C 205.832031 293.558594 204.667969 294.996094 203.261719 296.199219 C 201.859375 297.402344 200.207031 298.3125 198.457031 298.9375 C 197.585938 299.261719 196.683594 299.507812 195.769531 299.683594 C 194.855469 299.867188 193.925781 299.976562 192.992188 300 C 192.515625 300.023438 192.085938 300.015625 191.648438 300.015625 L 190.328125 299.992188 C 189.453125 299.96875 188.574219 299.945312 187.695312 299.898438 C 184.179688 299.734375 172.539062 299.09375 170.316406 298.375 C 168.097656 297.640625 165.992188 296.417969 164.328125 294.703125 C 163.898438 294.292969 163.550781 293.800781 163.179688 293.335938 C 162.859375 292.828125 162.523438 292.339844 162.277344 291.792969 C 161.992188 291.269531 161.804688 290.703125 161.601562 290.148438 C 161.503906 289.871094 161.445312 289.578125 161.367188 289.296875 C 161.289062 289.011719 161.222656 288.730469 161.171875 288.457031 C 161.050781 287.859375 160.914062 287.265625 160.773438 286.671875 C 160.464844 286.683594 160.15625 286.703125 159.847656 286.710938 L 157.921875 286.78125 C 157.597656 286.789062 157.285156 286.808594 156.953125 286.8125 C 156.609375 286.796875 156.261719 286.820312 155.917969 286.765625 C 154.539062 286.632812 153.1875 286.128906 152.046875 285.3125 C 149.714844 283.734375 148.332031 280.847656 148.488281 278 C 148.605469 275.621094 149.800781 273.316406 151.667969 271.820312 C 150.847656 271.167969 150.144531 270.367188 149.628906 269.457031 C 148.863281 268.136719 148.46875 266.609375 148.484375 265.097656 C 148.5 263.582031 148.929688 262.074219 149.714844 260.785156 C 150.292969 259.828125 151.066406 258.996094 151.964844 258.339844 C 151.105469 257.660156 150.386719 256.816406 149.855469 255.871094 C 149.140625 254.578125 148.785156 253.101562 148.832031 251.648438 C 148.898438 250.203125 149.289062 248.761719 150.070312 247.554688 C 150.828125 246.335938 151.90625 245.347656 153.148438 244.664062 C 154.394531 244.003906 155.816406 243.644531 157.21875 243.679688 C 158.582031 243.664062 159.949219 243.675781 161.316406 243.636719 C 164.046875 243.59375 166.777344 243.457031 169.511719 243.375 C 172.4375 243.238281 175.363281 243.183594 178.289062 243.175781 C 178.289062 241.582031 178.28125 239.988281 178.269531 238.398438 C 178.171875 227.753906 177.757812 217.117188 177.027344 206.5 C 176.730469 202.179688 176.417969 197.851562 175.9375 193.546875 C 171.71875 191.523438 167.980469 188.464844 165.085938 184.761719 C 162.40625 181.332031 160.355469 177.480469 159.085938 173.316406 C 158.453125 171.234375 158.054688 169.09375 157.832031 166.929688 C 157.570312 164.425781 157.644531 161.367188 160.320312 160.164062 C 162.765625 159.066406 165.445312 160.058594 167.507812 161.511719 C 169.511719 162.921875 171.152344 164.671875 172.550781 166.679688 C 175.300781 170.636719 176.886719 175.40625 178.054688 180.039062 C 178.921875 183.484375 179.523438 186.992188 179.976562 190.515625 C 179.992188 190.519531 180.007812 190.527344 180.023438 190.53125 C 180.46875 190.6875 180.914062 190.832031 181.371094 190.964844 C 182.226562 191.214844 183.097656 191.417969 183.976562 191.566406 C 184.074219 191.582031 184.175781 191.597656 184.273438 191.613281 C 184.417969 191.570312 184.84375 191.683594 184.980469 191.699219 C 185.394531 191.738281 185.804688 191.769531 186.21875 191.789062 C 187.117188 191.828125 188.019531 191.820312 188.917969 191.761719 C 188.933594 191.761719 188.945312 191.757812 188.960938 191.757812 C 189.566406 185.089844 190.582031 178.453125 191.996094 171.914062 C 192.539062 169.414062 193.03125 166.863281 194.132812 164.535156 C 195.175781 162.335938 196.949219 160.695312 199.226562 159.84375 C 203.152344 158.375 208.195312 159.941406 210.828125 163.128906 C 214.03125 167.011719 214.578125 172.238281 213.476562 177.023438 C 212.574219 180.9375 210.492188 184.542969 207.757812 187.46875 C 203.90625 191.589844 198.636719 194.429688 193.066406 195.601562 C 193.019531 196.289062 192.964844 196.980469 192.929688 197.667969 C 192.648438 202.734375 192.605469 207.8125 192.796875 212.878906 C 192.992188 217.976562 193.429688 223.0625 194.097656 228.121094 C 194.105469 228.171875 194.113281 228.222656 194.117188 228.273438 C 194.144531 228.445312 194.167969 228.617188 194.191406 228.792969 C 194.234375 229.101562 194.28125 229.410156 194.324219 229.71875 C 194.414062 230.335938 194.511719 230.957031 194.609375 231.574219 C 194.804688 232.808594 195.015625 234.042969 195.242188 235.269531 C 195.703125 237.800781 196.230469 240.316406 196.8125 242.820312 C 196.863281 243.042969 196.875 243.261719 196.863281 243.472656 C 201.484375 243.582031 205.714844 243.675781 206.453125 243.640625 C 207.835938 243.566406 209.222656 243.515625 210.609375 243.472656 L 214.765625 243.328125 L 215.289062 243.3125 L 215.851562 243.324219 C 216.039062 243.320312 216.226562 243.34375 216.410156 243.371094 C 216.597656 243.398438 216.785156 243.414062 216.972656 243.449219 C 217.707031 243.601562 218.4375 243.824219 219.117188 244.164062 C 221.855469 245.484375 223.773438 248.417969 223.8125 251.519531 C 223.851562 253.054688 223.460938 254.609375 222.691406 255.953125 C 222.164062 256.886719 221.441406 257.703125 220.601562 258.367188 C 221.421875 259.023438 222.121094 259.828125 222.640625 260.738281 C 223.40625 262.058594 223.800781 263.585938 223.785156 265.097656 C 223.769531 266.609375 223.339844 268.117188 222.558594 269.402344 C 221.980469 270.363281 221.203125 271.195312 220.300781 271.851562 Z M 196.707031 189.886719 C 196.695312 189.902344 196.519531 189.976562 196.464844 189.996094 C 196.566406 189.964844 196.675781 189.921875 196.707031 189.886719 Z M 194.082031 185.355469 C 194.070312 185.445312 194.074219 185.414062 194.082031 185.355469 Z M 193.445312 190.988281 C 194.414062 190.726562 195.367188 190.417969 196.300781 190.050781 C 196.328125 190.039062 196.386719 190.019531 196.449219 190 C 196.441406 190.003906 196.46875 189.988281 196.585938 189.9375 C 196.785156 189.851562 196.988281 189.761719 197.1875 189.671875 C 197.5625 189.496094 197.933594 189.316406 198.300781 189.125 C 199.097656 188.710938 199.875 188.257812 200.625 187.765625 C 201.007812 187.511719 201.386719 187.25 201.753906 186.980469 C 201.824219 186.925781 201.894531 186.875 201.964844 186.824219 C 202.121094 186.6875 202.289062 186.5625 202.449219 186.433594 C 203.113281 185.878906 203.75 185.292969 204.351562 184.671875 C 204.683594 184.328125 205.007812 183.976562 205.316406 183.613281 C 205.441406 183.46875 205.5625 183.320312 205.683594 183.171875 C 205.734375 183.109375 205.785156 183.046875 205.835938 182.984375 C 206.332031 182.257812 206.847656 181.554688 207.289062 180.792969 C 207.515625 180.398438 207.730469 180 207.929688 179.589844 C 208.023438 179.398438 208.117188 179.203125 208.207031 179.007812 C 208.246094 178.921875 208.285156 178.832031 208.324219 178.746094 C 208.492188 178.363281 208.277344 178.867188 208.269531 178.871094 C 208.347656 178.851562 208.527344 178.207031 208.558594 178.128906 C 208.632812 177.925781 208.703125 177.71875 208.769531 177.515625 C 208.90625 177.101562 209.027344 176.6875 209.132812 176.265625 C 209.265625 175.742188 209.378906 175.210938 209.464844 174.679688 C 209.476562 174.601562 209.492188 174.519531 209.503906 174.4375 C 209.507812 174.394531 209.511719 174.355469 209.511719 174.324219 C 209.542969 174.070312 209.5625 173.8125 209.578125 173.554688 C 209.613281 173.015625 209.621094 172.472656 209.601562 171.929688 C 209.59375 171.675781 209.578125 171.417969 209.554688 171.164062 C 209.546875 171.050781 209.535156 170.9375 209.523438 170.828125 C 209.511719 170.691406 209.507812 170.648438 209.507812 170.648438 C 209.457031 170.183594 209.3125 169.695312 209.191406 169.257812 C 209.132812 169.042969 209.066406 168.832031 208.992188 168.621094 C 208.949219 168.488281 208.902344 168.359375 208.851562 168.226562 C 208.839844 168.195312 208.824219 168.148438 208.8125 168.105469 C 208.667969 167.683594 208.382812 167.253906 208.15625 166.886719 C 208.023438 166.671875 207.871094 166.46875 207.734375 166.257812 C 207.730469 166.253906 207.730469 166.25 207.726562 166.246094 C 207.722656 166.242188 207.722656 166.238281 207.71875 166.234375 C 207.652344 166.164062 207.59375 166.089844 207.53125 166.015625 C 207.234375 165.683594 206.894531 165.410156 206.574219 165.105469 C 206.496094 165.054688 206.421875 165 206.339844 164.945312 C 206.179688 164.839844 206.015625 164.738281 205.847656 164.640625 C 205.617188 164.507812 205.378906 164.394531 205.136719 164.273438 C 205.109375 164.257812 205.089844 164.246094 205.070312 164.234375 C 204.996094 164.210938 204.921875 164.1875 204.925781 164.1875 C 204.519531 164.039062 204.097656 163.917969 203.675781 163.824219 C 203.578125 163.804688 203.484375 163.789062 203.390625 163.769531 C 203.394531 163.769531 203.402344 163.765625 203.40625 163.761719 C 203.402344 163.765625 203.386719 163.765625 203.378906 163.769531 C 203.359375 163.765625 203.339844 163.761719 203.320312 163.757812 C 203.140625 163.722656 203.113281 163.742188 203.152344 163.765625 C 203.03125 163.746094 202.902344 163.71875 202.839844 163.714844 C 202.429688 163.695312 202.023438 163.714844 201.613281 163.746094 C 201.609375 163.75 201.605469 163.75 201.597656 163.75 C 201.507812 163.769531 201.414062 163.785156 201.324219 163.804688 C 201.121094 163.851562 200.921875 163.902344 200.722656 163.96875 C 200.65625 163.988281 200.589844 164.011719 200.523438 164.035156 C 200.527344 164.027344 200.535156 164.023438 200.535156 164.015625 C 200.535156 164.023438 200.527344 164.03125 200.515625 164.039062 C 200.476562 164.050781 200.4375 164.066406 200.394531 164.078125 C 200.222656 164.136719 200.289062 164.144531 200.378906 164.117188 C 200.25 164.175781 200.085938 164.238281 200.042969 164.261719 C 199.839844 164.375 199.65625 164.511719 199.464844 164.632812 C 199.460938 164.636719 199.460938 164.636719 199.457031 164.640625 C 199.390625 164.707031 199.3125 164.765625 199.246094 164.832031 C 199.085938 164.984375 198.941406 165.152344 198.789062 165.3125 C 198.777344 165.328125 198.769531 165.332031 198.761719 165.34375 C 198.679688 165.460938 198.59375 165.574219 198.519531 165.695312 C 198.25 166.109375 197.980469 166.566406 197.808594 167.03125 C 197.757812 167.175781 197.679688 167.390625 197.664062 167.4375 C 197.574219 167.6875 197.496094 167.9375 197.417969 168.191406 C 196.714844 170.519531 196.253906 172.941406 195.773438 175.324219 C 195.28125 177.773438 194.84375 180.238281 194.464844 182.710938 C 194.359375 183.398438 194.261719 184.085938 194.164062 184.773438 C 194.144531 184.910156 194.125 185.046875 194.105469 185.1875 C 194.101562 185.214844 194.101562 185.230469 194.097656 185.253906 C 194.054688 185.585938 194.007812 185.921875 193.96875 186.253906 C 193.808594 187.496094 193.667969 188.738281 193.539062 189.980469 C 193.503906 190.316406 193.480469 190.652344 193.445312 190.988281 Z M 162.28125 164.054688 C 162.261719 164.070312 162.25 164.078125 162.238281 164.089844 C 162.246094 164.089844 162.25 164.085938 162.257812 164.082031 C 162.304688 164.035156 162.351562 163.976562 162.324219 163.953125 C 162.335938 163.964844 162.289062 164.023438 162.238281 164.089844 C 162.253906 164.074219 162.265625 164.066406 162.28125 164.054688 Z M 162.261719 164.078125 C 162.261719 164.078125 162.261719 164.078125 162.261719 164.082031 C 162.261719 164.078125 162.265625 164.078125 162.265625 164.078125 C 162.265625 164.078125 162.261719 164.078125 162.261719 164.078125 Z M 162.183594 164.132812 C 162.179688 164.136719 162.175781 164.136719 162.171875 164.140625 C 162.066406 164.191406 161.910156 164.359375 162.183594 164.132812 Z M 175.21875 188.148438 C 175.195312 187.996094 175.171875 187.847656 175.148438 187.699219 C 174.941406 186.4375 174.707031 185.179688 174.441406 183.929688 C 173.921875 181.464844 173.28125 179.023438 172.480469 176.636719 C 172.285156 176.0625 172.085938 175.492188 171.871094 174.921875 C 171.789062 174.710938 171.707031 174.496094 171.625 174.285156 C 171.582031 174.179688 171.539062 174.070312 171.496094 173.964844 C 171.492188 173.957031 171.425781 173.804688 171.390625 173.714844 C 171.347656 173.613281 171.292969 173.488281 171.28125 173.460938 C 171.234375 173.355469 171.1875 173.25 171.136719 173.148438 C 171.03125 172.914062 170.921875 172.679688 170.808594 172.445312 C 170.582031 171.980469 170.347656 171.523438 170.097656 171.074219 C 169.605469 170.175781 169.058594 169.308594 168.457031 168.480469 C 168.445312 168.464844 168.414062 168.421875 168.382812 168.375 C 168.324219 168.289062 168.25 168.203125 168.183594 168.121094 C 168.003906 167.90625 167.824219 167.691406 167.636719 167.480469 C 167.324219 167.125 166.992188 166.78125 166.648438 166.453125 C 166.28125 166.101562 165.882812 165.675781 165.449219 165.410156 C 165.90625 165.691406 165.261719 165.285156 165.148438 165.207031 C 164.9375 165.0625 164.726562 164.925781 164.511719 164.792969 C 164.285156 164.652344 164.054688 164.519531 163.816406 164.402344 C 163.785156 164.386719 163.738281 164.359375 163.6875 164.332031 C 163.667969 164.328125 163.644531 164.324219 163.625 164.316406 C 163.371094 164.242188 163.128906 164.15625 162.871094 164.101562 C 162.859375 164.097656 162.839844 164.09375 162.824219 164.09375 C 162.890625 164.113281 162.863281 164.136719 162.664062 164.074219 C 162.683594 164.074219 162.699219 164.074219 162.703125 164.074219 C 162.710938 164.074219 162.714844 164.078125 162.722656 164.078125 C 162.667969 164.070312 162.613281 164.058594 162.570312 164.042969 C 162.605469 164.058594 162.636719 164.066406 162.664062 164.074219 C 162.617188 164.074219 162.535156 164.074219 162.453125 164.074219 C 162.546875 164.042969 162.601562 164.007812 162.421875 164.058594 C 162.398438 164.0625 162.378906 164.070312 162.355469 164.074219 C 162.324219 164.074219 162.300781 164.074219 162.28125 164.078125 C 162.277344 164.078125 162.273438 164.082031 162.269531 164.085938 C 162.273438 164.089844 162.277344 164.09375 162.28125 164.09375 C 162.265625 164.097656 162.246094 164.105469 162.226562 164.109375 C 162.230469 164.105469 162.230469 164.105469 162.234375 164.105469 C 162.230469 164.105469 162.226562 164.109375 162.222656 164.109375 C 162.222656 164.113281 162.222656 164.113281 162.222656 164.113281 C 162.214844 164.113281 162.210938 164.117188 162.207031 164.121094 C 162.207031 164.121094 162.207031 164.125 162.203125 164.128906 C 162.207031 164.125 162.210938 164.121094 162.214844 164.121094 C 162.210938 164.125 162.207031 164.132812 162.199219 164.140625 C 162.195312 164.148438 162.195312 164.152344 162.191406 164.164062 C 162.183594 164.191406 162.175781 164.214844 162.171875 164.242188 C 162.152344 164.304688 162.121094 164.605469 162.109375 164.628906 C 162.109375 164.636719 162.109375 164.648438 162.109375 164.65625 C 162.097656 164.910156 162.101562 165.167969 162.113281 165.421875 C 162.136719 165.898438 162.175781 166.375 162.222656 166.847656 C 162.25 167.109375 162.308594 167.375 162.3125 167.632812 C 162.300781 167.039062 162.320312 167.65625 162.34375 167.832031 C 162.417969 168.300781 162.5 168.765625 162.59375 169.230469 C 162.789062 170.1875 163.027344 171.132812 163.308594 172.070312 C 163.589844 173.003906 163.914062 173.925781 164.28125 174.832031 C 164.289062 174.859375 164.308594 174.902344 164.324219 174.949219 C 164.359375 175.027344 164.394531 175.105469 164.425781 175.183594 C 164.523438 175.402344 164.621094 175.617188 164.722656 175.832031 C 164.910156 176.242188 165.105469 176.644531 165.3125 177.042969 C 165.761719 177.910156 166.246094 178.757812 166.769531 179.582031 C 167.039062 180.003906 167.316406 180.417969 167.601562 180.828125 C 167.738281 181.023438 167.878906 181.214844 168.019531 181.40625 C 168.074219 181.476562 168.289062 181.777344 168.320312 181.824219 C 168.3125 181.808594 168.273438 181.757812 168.199219 181.652344 C 169.304688 183.183594 170.703125 184.578125 172.117188 185.824219 C 172.492188 186.152344 172.871094 186.46875 173.257812 186.777344 C 173.308594 186.816406 173.363281 186.859375 173.417969 186.902344 C 173.445312 186.921875 173.472656 186.941406 173.492188 186.957031 C 173.679688 187.097656 173.871094 187.234375 174.0625 187.371094 C 174.441406 187.640625 174.828125 187.898438 175.21875 188.148438 Z M 190.234375 191.640625 C 190.238281 191.640625 190.246094 191.640625 190.25 191.640625 C 190.289062 191.628906 190.363281 191.621094 190.425781 191.613281 C 190.585938 191.574219 190.359375 191.527344 190.234375 191.640625 Z M 184.300781 191.613281 C 184.335938 191.621094 184.375 191.628906 184.410156 191.632812 C 184.753906 191.6875 184.421875 191.625 184.300781 191.613281 Z M 180.515625 195.257812 C 180.546875 195.566406 180.582031 195.878906 180.609375 196.1875 C 181.132812 201.679688 181.503906 207.191406 181.820312 212.699219 C 182.398438 222.851562 182.683594 233.019531 182.6875 243.191406 C 183.761719 243.203125 184.832031 243.214844 185.902344 243.230469 C 187.53125 243.257812 189.890625 243.3125 192.433594 243.371094 C 191.898438 241.035156 191.410156 238.691406 190.980469 236.335938 C 189.042969 225.722656 188.128906 214.914062 188.300781 204.125 C 188.339844 201.472656 188.449219 198.820312 188.617188 196.167969 C 187.890625 196.203125 187.164062 196.214844 186.4375 196.1875 C 184.417969 196.113281 182.4375 195.789062 180.515625 195.257812 Z M 180.515625 195.257812 " fill-opacity="1" fill-rule="nonzero"/></g><path fill="#9e968c" d="M 220.300781 271.851562 C 221.207031 272.566406 221.957031 273.464844 222.492188 274.472656 C 223.207031 275.824219 223.535156 277.367188 223.421875 278.867188 C 223.390625 279.617188 223.207031 280.355469 222.976562 281.0625 C 222.726562 281.765625 222.375 282.429688 221.953125 283.039062 C 221.082031 284.238281 219.914062 285.214844 218.566406 285.804688 C 218.402344 285.886719 218.230469 285.949219 218.054688 286.007812 C 217.882812 286.066406 217.714844 286.136719 217.535156 286.1875 C 217.179688 286.273438 216.828125 286.378906 216.460938 286.417969 C 215.734375 286.542969 215 286.503906 214.300781 286.511719 C 212.886719 286.527344 211.46875 286.523438 210.050781 286.558594 C 207.21875 286.609375 204.386719 286.742188 201.554688 286.824219 C 195.886719 287.078125 190.21875 287.039062 184.554688 286.960938 C 178.886719 286.867188 173.222656 286.707031 167.554688 286.339844 C 166.273438 286.425781 164.988281 286.484375 163.703125 286.546875 C 162.417969 286.617188 161.132812 286.671875 159.847656 286.710938 L 157.921875 286.78125 C 157.597656 286.789062 157.285156 286.808594 156.953125 286.8125 C 156.609375 286.796875 156.261719 286.820312 155.917969 286.765625 C 154.542969 286.628906 153.1875 286.128906 152.046875 285.3125 C 149.714844 283.734375 148.332031 280.847656 148.488281 278 C 148.605469 275.621094 149.800781 273.316406 151.667969 271.820312 C 150.851562 271.164062 150.148438 270.367188 149.628906 269.457031 C 148.863281 268.136719 148.46875 266.609375 148.484375 265.09375 C 148.5 263.582031 148.929688 262.074219 149.714844 260.785156 C 150.292969 259.828125 151.066406 258.992188 151.964844 258.339844 C 151.105469 257.660156 150.386719 256.816406 149.859375 255.871094 C 149.140625 254.578125 148.789062 253.097656 148.832031 251.648438 C 148.898438 250.203125 149.289062 248.761719 150.070312 247.554688 C 150.828125 246.335938 151.90625 245.347656 153.148438 244.664062 C 154.394531 244.003906 155.816406 243.644531 157.21875 243.679688 C 158.585938 243.664062 159.949219 243.675781 161.316406 243.636719 C 164.046875 243.59375 166.78125 243.457031 169.511719 243.375 C 174.976562 243.117188 180.441406 243.148438 185.902344 243.230469 C 191.367188 243.320312 205.066406 243.703125 206.453125 243.640625 C 207.835938 243.566406 209.222656 243.515625 210.609375 243.472656 L 214.765625 243.328125 L 215.289062 243.3125 L 215.851562 243.324219 C 216.039062 243.320312 216.226562 243.34375 216.410156 243.371094 C 216.597656 243.398438 216.785156 243.414062 216.972656 243.449219 C 217.707031 243.601562 218.4375 243.824219 219.117188 244.164062 C 221.855469 245.480469 223.773438 248.417969 223.8125 251.519531 C 223.851562 253.054688 223.460938 254.609375 222.691406 255.953125 C 222.164062 256.886719 221.441406 257.699219 220.601562 258.367188 C 221.421875 259.023438 222.121094 259.828125 222.640625 260.738281 C 223.40625 262.058594 223.800781 263.582031 223.785156 265.097656 C 223.769531 266.609375 223.339844 268.117188 222.558594 269.402344 C 221.980469 270.363281 221.203125 271.195312 220.300781 271.851562 Z M 220.300781 271.851562 " fill-opacity="1" fill-rule="nonzero"/><path fill="#ffffff" d="M 168.046875 97.140625 C 181.175781 103.914062 153.746094 125.019531 143.234375 143.234375 C 135.03125 157.453125 131.320312 176.257812 125.683594 169.007812 C 120.050781 161.757812 123.355469 135.148438 132.90625 120.144531 C 142.453125 105.144531 160.484375 93.234375 168.046875 97.140625 Z M 185.570312 88.5625 C 180.9375 89.96875 177.496094 94.710938 178.734375 98.132812 C 180.324219 102.511719 183.894531 104.757812 189.414062 103.214844 C 192.984375 102.21875 197.878906 97.625 196.332031 93.5 C 194.578125 89.402344 190.933594 86.933594 185.570312 88.5625 Z M 185.570312 88.5625 " fill-opacity="1" fill-rule="nonzero"/><path fill="#f5b95b" d="M 212.40625 211.613281 C 200.75 207.460938 223.304688 191.726562 231.425781 178.691406 C 237.769531 168.515625 240.003906 155.347656 245.230469 160.132812 C 250.453125 164.921875 248.96875 183.472656 241.507812 194.246094 C 234.046875 205.023438 219.125 214.003906 212.40625 211.613281 Z M 212.40625 211.613281 " fill-opacity="1" fill-rule="nonzero"/></svg>