<svg xmlns="http://www.w3.org/2000/svg" xmlns:xlink="http://www.w3.org/1999/xlink" width="500" zoomAndPan="magnify" viewBox="0 0 375 374.999991" height="500" preserveAspectRatio="xMidYMid meet" version="1.0"><defs><clipPath id="1459a417ad"><path d="M 241.289062 -196.984375 C 36.613281 -196.984375 -129.308594 -33.878906 -129.308594 167.320312 C -129.308594 368.519531 36.613281 531.625 241.289062 531.625 C 445.960938 531.625 611.882812 368.519531 611.882812 167.320312 C 611.882812 -33.878906 445.960938 -196.984375 241.289062 -196.984375 Z M 241.289062 -196.984375 " clip-rule="nonzero"/></clipPath><clipPath id="1941cdcada"><path d="M 105 12.109375 L 375 12.109375 L 375 260 L 105 260 Z M 105 12.109375 " clip-rule="nonzero"/></clipPath></defs><rect x="-37.5" width="450" fill="#ffffff" y="-37.499999" height="449.999989" fill-opacity="1"/><rect x="-37.5" width="450" fill="#ffffff" y="-37.499999" height="449.999989" fill-opacity="1"/><g clip-path="url(#1459a417ad)"><rect x="-37.5" width="450" fill="#000000" y="-37.499999" height="449.999989" fill-opacity="1"/></g><path fill="#ffffff" d="M 117.628906 283.671875 C 106.589844 283.671875 98.269531 293.390625 98.269531 306.28125 C 98.269531 310.074219 98.910156 322.894531 107.183594 328.449219 C 112.734375 332.175781 120.863281 332.050781 131.308594 328.183594 C 131.277344 327.617188 131.246094 327.054688 131.25 326.519531 C 131.273438 319.628906 133.40625 313.527344 136.953125 308.910156 C 136.644531 292.636719 129.820312 283.671875 117.628906 283.671875 Z M 117.628906 283.671875 " fill-opacity="1" fill-rule="nonzero"/><path fill="#ffffff" d="M 168.265625 312.625 C 164.460938 308.84375 159.46875 306.679688 154.554688 306.679688 C 154.515625 306.679688 154.476562 306.679688 154.433594 306.679688 C 149.734375 306.714844 145.605469 308.863281 142.644531 312.410156 C 142.640625 312.414062 142.636719 312.421875 142.632812 312.425781 C 139.679688 315.972656 137.890625 320.921875 137.871094 326.542969 C 137.839844 335.042969 142.761719 348.550781 156.078125 348.605469 C 156.117188 348.605469 156.148438 348.605469 156.183594 348.605469 C 161.316406 348.605469 165.429688 347.101562 168.40625 344.132812 C 172.183594 340.371094 174.261719 334.125 174.261719 326.53125 C 174.261719 321.402344 172.132812 316.464844 168.265625 312.625 Z M 168.265625 312.625 " fill-opacity="1" fill-rule="nonzero"/><path fill="#ffffff" d="M 111.160156 277.972656 C 111.113281 267.964844 104.015625 258.921875 94.730469 257.625 C 89.84375 256.945312 84.949219 258.40625 80.9375 261.734375 C 76.832031 265.136719 74.152344 270.070312 73.375 275.613281 C 72.359375 282.925781 74.007812 289.488281 77.902344 293.625 C 81.234375 297.15625 86.140625 298.902344 92.503906 298.835938 C 94.839844 288.496094 101.941406 280.542969 111.160156 277.972656 Z M 111.160156 277.972656 " fill-opacity="1" fill-rule="nonzero"/><path fill="#ffffff" d="M 198.324219 171.03125 C 195.503906 169.53125 192.101562 169.511719 189.191406 171 C 168.585938 181.5 145.976562 189.417969 145.746094 189.496094 C 145.632812 189.535156 145.515625 189.570312 145.398438 189.597656 C 122.953125 194.742188 106.65625 185.824219 101.011719 175.375 C 97.648438 169.144531 98.832031 161.277344 103.886719 156.242188 C 130.816406 129.398438 182.210938 103.140625 205.648438 110.808594 C 244.289062 123.054688 264.40625 117.617188 274.476562 110.878906 C 286.0625 103.140625 287.570312 92.058594 287.757812 89.914062 C 287.953125 87.625 287.800781 84.292969 285.949219 81.421875 C 280.480469 72.941406 266.484375 72.328125 251.667969 71.679688 C 243.074219 71.308594 234.195312 70.917969 226.640625 68.863281 C 218.832031 66.738281 212.261719 65.871094 204.664062 65.96875 C 132.636719 66.871094 93.707031 90.894531 93.320312 91.136719 C 92.175781 91.859375 90.707031 91.8125 89.605469 91.015625 L -14.308594 15.4375 L -14.308594 182.3125 L 20.359375 201.222656 C 20.90625 201.519531 21.355469 201.964844 21.660156 202.507812 C 21.898438 202.933594 45.128906 243.972656 72.25 261.394531 C 73.546875 259.648438 75.023438 258.039062 76.710938 256.640625 C 82.171875 252.113281 88.890625 250.117188 95.644531 251.074219 C 108.066406 252.800781 117.324219 264.0625 117.746094 277.0625 C 132.050781 277.117188 141.25 286.757812 143.203125 303.226562 C 146.480469 301.226562 150.28125 300.09375 154.390625 300.066406 C 154.445312 300.066406 154.496094 300.066406 154.550781 300.066406 C 161.199219 300.066406 167.890625 302.921875 172.929688 307.929688 C 177.351562 312.320312 180.046875 317.839844 180.710938 323.710938 C 191.234375 319.605469 201.65625 322.992188 207.300781 329.304688 C 212.808594 335.464844 213.578125 343.675781 209.84375 351.367188 C 223.523438 354.011719 229.152344 345.695312 231 341.703125 C 234.269531 334.648438 233.023438 327.066406 229.722656 325 C 229.707031 324.988281 229.699219 324.972656 229.683594 324.960938 C 229.605469 324.898438 229.515625 324.855469 229.441406 324.796875 C 215.613281 313.964844 181.335938 286.515625 161.734375 265.679688 C 160.484375 264.347656 160.546875 262.253906 161.875 261 C 163.207031 259.75 165.300781 259.816406 166.554688 261.144531 C 185.847656 281.648438 219.8125 308.847656 233.523438 319.589844 C 237.78125 322.925781 243.089844 324.414062 248.089844 323.667969 C 257.074219 322.335938 264.433594 318.003906 269.96875 310.785156 C 274.921875 304.328125 274.171875 295.082031 268.230469 289.285156 C 242.601562 264.265625 198.441406 230.007812 197.996094 229.664062 C 196.550781 228.542969 196.289062 226.464844 197.410156 225.023438 C 198.523438 223.574219 200.605469 223.316406 202.050781 224.433594 C 202.496094 224.777344 246.953125 259.265625 272.855469 284.546875 C 274.675781 286.324219 276.082031 288.363281 277.199219 290.515625 C 293.101562 288.511719 302.785156 275.097656 306.074219 267.15625 C 308.113281 262.226562 304.847656 256.628906 301.433594 253.332031 C 275.75 228.578125 203.269531 174.703125 198.324219 171.03125 Z M 198.324219 171.03125 " fill-opacity="1" fill-rule="nonzero"/><g clip-path="url(#1941cdcada)"><path fill="#ffffff" d="M 293.714844 83 C 294.332031 85.328125 294.578125 87.835938 294.351562 90.484375 C 293.6875 98.21875 289.082031 109.082031 278.152344 116.382812 C 261.753906 127.339844 236.679688 127.582031 203.625 117.105469 C 184.910156 111 136.058594 133.523438 108.558594 160.925781 C 105.5625 163.910156 104.855469 168.5625 106.835938 172.230469 C 110.574219 179.15625 123.484375 187.742188 143.742188 183.191406 C 145.847656 182.445312 166.933594 174.921875 186.1875 165.109375 C 191.082031 162.605469 196.851562 162.671875 201.605469 165.265625 C 215.429688 172.808594 252.476562 186.910156 297.851562 155.167969 C 299.347656 154.121094 301.410156 154.484375 302.460938 155.980469 C 303.507812 157.476562 303.144531 159.539062 301.644531 160.589844 C 269.03125 183.410156 240.300781 183.921875 220.453125 179.347656 C 244.957031 197.875 287.199219 230.421875 306.027344 248.578125 C 308.917969 251.363281 311.640625 255.421875 312.753906 259.90625 C 322.210938 252.992188 345.324219 233.777344 371.890625 194.730469 C 372.210938 194.265625 372.640625 193.886719 373.144531 193.632812 L 389.296875 185.542969 L 389.296875 12.328125 Z M 293.714844 83 " fill-opacity="1" fill-rule="nonzero"/></g><path fill="#ffffff" d="M 180.617188 331.105469 C 179.851562 338.457031 177.261719 344.65625 173.074219 348.824219 C 172.433594 349.464844 171.75 350.035156 171.046875 350.578125 C 173.257812 356.609375 176.957031 360.292969 181.851562 361.246094 C 188.375 362.53125 196.421875 358.914062 201.417969 352.472656 C 206.667969 345.914062 207.007812 338.910156 202.363281 333.714844 C 197.917969 328.746094 189.179688 326.472656 180.617188 331.105469 Z M 180.617188 331.105469 " fill-opacity="1" fill-rule="nonzero"/></svg>